<?xml version="1.0" encoding="UTF-8"?>
<svg width="36px" height="36px" viewBox="0 0 36 36" version="1.1" xmlns="http://www.w3.org/2000/svg" xmlns:xlink="http://www.w3.org/1999/xlink">
    <!-- Generator: Sketch 55.2 (78181) - https://sketchapp.com -->
    <title>avatar</title>
    <desc>Created with Sketch.</desc>
    <defs>
        <circle id="path-1" cx="18" cy="18" r="18"></circle>
        <path d="M0.657417795,0.246465133 C0.122966405,1.45803024 0.593539143,3.59210954 0.943807085,4.7978191 L0.943807085,4.7978191 C1.36860012,6.26117255 2.11118945,7.63616054 3.12845699,8.77266823 L3.12845699,8.77266823 C3.91682602,9.65366131 4.91812389,10.5229433 4.98892273,11.7036337 L4.98892273,11.7036337 C5.02458831,12.304093 4.80207767,12.8896474 4.5401752,13.4315513 L4.5401752,13.4315513 C4.04245404,14.4637238 4.39218966,15.4235006 4.00838542,16.5073084 L4.00838542,16.5073084 C3.37758373,18.2868611 3.03317133,20.9069505 4.33948977,22.3782888 L4.33948977,22.3782888 C5.94497323,24.1855223 5.38709966,24.3707704 6.49858821,24.7141182 L6.49858821,24.7141182 C8.46551838,25.3209654 10.5202817,26.0129841 12.5809005,25.5828679 L12.5809005,25.5828679 C14.9880611,25.0808881 17.172711,22.7812566 16.7101231,20.3661113 L16.7101231,20.3661113 C16.5238103,19.3935588 16.476966,16.6787161 16.4370418,15.6891293 L16.4370418,15.6891293 C16.4024409,14.8294291 16.7830512,13.9702612 16.617499,13.1265307 L16.617499,13.1265307 C16.4492852,12.2694921 15.8078371,11.6285763 15.5139953,10.8268992 L15.5139953,10.8268992 C15.0742973,9.62970681 15.607684,9.65898453 16.6100465,9.49715861 L16.6100465,9.49715861 C20.7642882,8.82962669 22.9265806,5.27158577 23.1006499,1.32654668 L23.1006499,1.32654668 C23.1059731,1.20251563 23.1091671,1.07103207 23.0458207,0.965099969 L23.0458207,0.965099969 C22.8062758,0.572246259 20.9836049,1.05133615 20.5934128,1.12799053 L20.5934128,1.12799053 C19.7204046,1.29886593 18.8686892,1.58578754 18.0558334,1.96693016 L18.0558334,1.96693016 C15.7913351,3.02678347 13.8222757,4.81698269 12.5031815,6.88398941 L12.5031815,6.88398941 C11.8116951,7.96832953 10.869485,10.4516121 9.58765336,8.80993077 L9.58765336,8.80993077 C9.08460898,8.16582103 9.06278377,7.27045526 8.85358119,6.51349323 L8.85358119,6.51349323 C8.66141291,5.81774824 8.3361641,5.15607187 7.93585788,4.55667719 L7.93585788,4.55667719 C7.11129095,3.32594849 5.9321975,2.38639998 4.66473857,1.64327833 L4.66473857,1.64327833 C4.30861509,1.43407574 2.06328046,0.0361979029 1.08061387,0.0361979029 L1.08061387,0.0361979029 C0.873540568,0.0361979029 0.722893413,0.0979472666 0.657417795,0.246465133" id="path-3"></path>
    </defs>
    <g id="Symbols" stroke="none" stroke-width="1" fill="none" fill-rule="evenodd">
        <g id="Barra_navegación_avatar" transform="translate(-1152.000000, -37.000000)">
            <g id="Group-34">
                <g id="avatar" transform="translate(1152.000000, 37.000000)">
                    <mask id="mask-2" fill="white">
                        <use xlink:href="#path-1"></use>
                    </mask>
                    <use id="Oval-Copy-3" fill="#FFFFFF" xlink:href="#path-1"></use>
                    <g id="Group-9" mask="url(#mask-2)">
                        <g transform="translate(-25.276596, 0.000000)" id="Group-5">
                            <g transform="translate(1.000000, 0.000000)">
                                <g id="Group-48" transform="translate(-1.000000, -0.000000)">
                                    <g id="Group-23" transform="translate(0.000000, 0.269887)">
                                        <path d="M49.8595238,23.0643988 C49.7466715,23.5142109 49.7679643,24.6709469 49.8659116,26.2178749 C49.8861399,26.5463176 49.9106267,26.8917947 49.9372428,27.2521767 C50.2827198,31.883379 51.0987696,38.915354 51.1956522,41.9155213 C51.3510903,46.7426182 49.9494862,51.6075098 47.2500808,55.612169 C47.2500808,55.612169 38.838327,63.3010294 23.5574887,55.6845648 C23.1800724,55.4966551 22.8526943,55.7537667 22.6876744,55.3662362 C20.7223412,50.7392925 18.8789098,48.0659709 20.4098681,43.2777336 C21.9408265,38.4894963 25.2359003,34.2873456 29.5216256,31.6592714 C30.6591979,30.9613971 31.8643751,30.3699873 32.9380688,29.577892 C35.8876656,27.4028239 38.172392,23.6978621 37.9828854,20.0381476" id="Fill-9" fill="#2E5189"></path>
                                        <path d="M37.9769233,23.0513569 C39.7405065,25.4489356 42.6964911,28.4895595 48.8224538,27.4531283 C49.4915827,27.3397437 49.9653494,27.3503902 49.9339424,26.6913754 L49.8184285,24.2458877 C49.7886184,23.6166829 49.3068669,23.0950073 48.6664835,22.9981247 L39.286968,20.9619926 C38.0876463,20.7810031 37.2705319,22.0915801 37.9769233,23.0513569" id="Fill-11" fill="#172039"></path>
                                        <path d="M40.7892875,15.1016586 C40.8568924,15.2608229 41.0426728,15.3364127 41.2023694,15.2682754 C41.3647277,15.2001382 41.4392528,15.0143578 41.3716478,14.8551935 C41.3035106,14.6938999 41.1177302,14.6183101 40.955372,14.6864474 C40.7962077,14.7545846 40.7206179,14.940365 40.7892875,15.1016586" id="Fill-13" fill="#FEFEFE"></path>
                                        <path d="M48.2241238,15.2162676 C48.2917287,15.3754319 48.4775091,15.4510216 48.6372057,15.3828844 C48.7990317,15.3147472 48.8735568,15.1289667 48.8064842,14.9698024 C48.7378146,14.8085088 48.5525665,14.7329191 48.3902083,14.8010563 C48.231044,14.8686612 48.1554542,15.054974 48.2241238,15.2162676" id="Fill-15" fill="#FEFEFE"></path>
                                        <path d="M40.7892875,15.1016586 C40.8568924,15.2608229 41.0426728,15.3364127 41.2023694,15.2682754 C41.3647277,15.2001382 41.4392528,15.0143578 41.3716478,14.8551935 C41.3035106,14.6938999 41.1177302,14.6183101 40.955372,14.6864474 C40.7962077,14.7545846 40.7206179,14.940365 40.7892875,15.1016586" id="Fill-17" fill="#FEFEFE"></path>
                                        <path d="M48.2241238,15.2162676 C48.2917287,15.3754319 48.4775091,15.4510216 48.6372057,15.3828844 C48.7990317,15.3147472 48.8735568,15.1289667 48.8064842,14.9698024 C48.7378146,14.8085088 48.5525665,14.7329191 48.3902083,14.8010563 C48.231044,14.8686612 48.1554542,15.054974 48.2241238,15.2162676" id="Fill-19" fill="#FEFEFE"></path>
                                        <path d="M52.1245011,1.96671724 C52.9373569,1.58610693 53.7890723,1.29918532 54.6626128,1.1277776 C55.0522726,1.05165554 56.8749435,0.572565652 57.1139561,0.964887041 C57.1778348,1.07081914 57.1746408,1.20283502 57.1693176,1.32633375 C56.9952483,5.27137284 54.8329559,8.82994609 50.6787142,9.49694568 C49.6763517,9.65930392 49.142965,9.6300262 49.582663,10.8266863 C49.8765048,11.6288957 50.517953,12.2692792 50.6861667,13.1263178 C50.8511866,13.9705806 50.4716409,14.8297485 50.5057095,15.6889164 C50.5451014,16.6790355 50.5924781,19.3933459 50.7787908,20.3658983 C51.14769,22.2929043 49.8882159,24.0197572 48.2758123,24.9337543 C46.2263722,26.0958134 44.0619505,25.6454689 41.8773006,25.1626528 C39.9305987,24.7325365 38.0280795,22.674047 37.6251117,20.7220218 C37.3387224,19.3331935 37.609142,17.8261896 38.0770531,16.5070954 C38.4608574,15.4232876 38.1111217,14.4640432 38.6088429,13.4318707 C38.8707454,12.8899668 39.093256,12.3038801 39.0570581,11.7034208 C38.9867916,10.5232627 37.9854937,9.65344838 37.1971247,8.77298762 C36.1798572,7.63594761 35.4372678,6.26149195 35.0124748,4.79813849 C34.6622069,3.59189661 34.1916341,1.45834963 34.7255532,0.246784526 C35.1019049,-0.60599548 38.3022254,1.3902124 38.7334063,1.6430654 C40.0008652,2.38671937 41.1794263,3.32573556 42.0039933,4.55699658 C42.4048318,5.15585894 42.7300806,5.81806764 42.9222489,6.5132803 C43.1314515,7.27024233 43.1527444,8.1656081 43.6563211,8.80971785 C44.9381527,10.4513992 45.8803628,7.9681166 46.5718492,6.88377648 C47.8909434,4.81676976 49.8600028,3.02657054 52.1245011,1.96671724" id="Fill-21" fill="#2E5189"></path>
                                    </g>
                                    <g id="Group-26" transform="translate(34.068614, 0.269887)">
                                        <mask id="mask-4" fill="white">
                                            <use xlink:href="#path-3"></use>
                                        </mask>
                                        <g id="Clip-25"></g>
                                        <path d="M-1.64311863,3.27958323 C-1.97848155,1.42231142 -1.56859354,-0.900209905 0.174761346,-1.62203867 C1.06160997,-1.9888086 2.07728054,-1.83496752 2.99447152,-1.55336912 C5.83068367,-0.682490166 8.27297747,1.39835693 9.58302216,4.06049976 C9.70652089,4.31175579 9.84013374,4.58803096 10.095116,4.70354485 C10.6625714,4.96172107 11.1682774,4.2638468 11.4456172,3.70544091 C13.1341429,0.302305721 16.652792,-2.19747887 20.4471839,-2.38911482 C21.6965439,-2.45246115 23.0619501,-2.22515962 23.9157947,-1.31063025 C24.3884968,-0.803327283 24.6546578,-0.131536791 24.7834798,0.55036782 C25.1241659,2.3634569 24.5460641,4.22924586 23.745984,5.89275243 C23.0949541,7.24644753 22.276775,8.5463781 21.1487845,9.53915882 C20.0213262,10.5319395 18.5542465,11.1978745 17.0525659,11.1478362 C17.0483073,12.5281474 18.2721158,13.9962918 17.4933286,15.1354611 C17.221312,15.5331057 16.7459484,15.7923465 16.4068592,16.1314357 C15.8575028,16.6807921 15.3800098,17.3302251 14.8743038,17.9205703 C13.5839551,19.4270419 11.3790769,20.6183787 9.42332553,19.8374622 C7.92111256,19.2375352 6.63395772,18.1127386 5.83707154,16.7047466 C5.10087007,15.4042837 4.91189572,14.0426038 4.930527,12.5744594 C4.94809363,11.1808402 3.77166178,10.9487477 2.71340545,10.2109493 C0.442519363,8.62835571 -1.15497926,5.9859088 -1.64311863,3.27958323" id="Fill-24" fill="#2178A9" mask="url(#mask-4)"></path>
                                    </g>
                                    <g id="Group-47" transform="translate(18.631274, 1.334532)">
                                        <path d="M25.4122586,17.9046539 C25.0071615,17.8641974 24.5600109,17.8753762 24.2470055,18.1351493 C23.9350648,18.3927932 23.8371175,18.8457993 23.9121749,19.2439763 C23.9872324,19.6416209 24.208146,19.9961474 24.4455617,20.3245901 C24.6308098,20.5832987 24.8298982,20.8324254 25.0481503,21.0645179 C25.222752,21.2487013 25.4234374,21.4291585 25.6725641,21.4754705 C25.9413868,21.5249765 26.2107418,21.4099949 26.4545453,21.2870285 C26.8990343,21.0613239 27.3307475,20.7914366 27.6591902,20.4161495 C28.0749338,19.9397213 28.5385863,18.7388026 27.7454264,18.3677741 C27.5239804,18.2639713 27.1428378,18.3017662 26.8985019,18.2394845 C26.3986515,18.1127918 25.9312727,17.9562891 25.4122586,17.9046539" id="Fill-27" fill="#172039"></path>
                                        <path d="M21.439592,14.6174052 C21.6546501,15.1247082 22.2423337,15.3642531 22.750169,15.1486627 C23.2553427,14.9346692 23.492226,14.3469856 23.2782326,13.8391503 C23.0631744,13.3323796 22.4765555,13.094964 21.9713818,13.3084252 C21.4630142,13.5240156 21.2250662,14.1106346 21.439592,14.6174052" id="Fill-29" fill="#172039"></path>
                                        <path d="M28.8432343,14.6174052 C29.0577601,15.1247082 29.6454437,15.3642531 30.1538113,15.1486627 C30.658985,14.9346692 30.8958683,14.3469856 30.6818748,13.8391503 C30.4668167,13.3323796 29.8801977,13.094964 29.3744917,13.3084252 C28.8666564,13.5240156 28.6281761,14.1106346 28.8432343,14.6174052" id="Fill-31" fill="#172039"></path>
                                        <path d="M18.7894264,5.27110668 C18.3023517,4.55300416 17.8120831,3.82478753 17.5123857,3.01086704 C17.4011304,2.70904041 16.884778,0.478610801 17.5358079,0.510017805 C18.1032632,0.537698554 18.7372589,1.47032688 19.1311772,1.82432107 C19.692777,2.32896242 20.2235022,2.86820471 20.7190941,3.43778936 C21.667692,4.52798502 22.5045024,5.7677632 22.8238956,7.1768198 C22.9367479,7.67507329 22.852641,8.36602737 22.4581904,8.73226498 C21.7624454,9.37637472 20.9511865,8.1861025 20.562059,7.71020655 C19.9259341,6.93141931 19.3547525,6.1025938 18.7894264,5.27110668" id="Fill-33" fill="#172039"></path>
                                        <path d="M32.5668806,3.44385783 C34.0887895,2.22217861 35.9114604,1.3017937 37.8570976,1.14475868 C37.8235613,1.682404 37.6431042,2.19875644 37.4642439,2.70659172 C37.1544325,3.58811712 36.8366362,4.48454754 36.2771656,5.23299242 C35.0996692,6.80973048 33.0816361,7.46129273 31.1956189,8.02395719 C30.936378,8.1011439 30.6718139,8.17939525 30.4013943,8.17460435 C30.1272484,8.16981345 29.8626843,8.08038334 29.6055727,7.98775929 C28.8997136,7.732777 28.5957577,7.69232052 29.1147718,7.03490273 C29.4581195,6.59946325 29.8216955,6.1767995 30.1884654,5.76105594 C30.9220053,4.93063346 31.7023895,4.13800585 32.5668806,3.44385783" id="Fill-35" fill="#172039"></path>
                                        <path d="M21.8444278,14.2865921 C21.9267258,14.4811147 22.1519231,14.5731388 22.3471939,14.4900926 C22.5409683,14.4085428 22.6322443,14.1825973 22.5491981,13.9888228 C22.4669001,13.7943002 22.2417028,13.7030242 22.0479283,13.7845741 C21.8534057,13.8676203 21.7621297,14.0920694 21.8444278,14.2865921" id="Fill-37" fill="#FEFEFE"></path>
                                        <path d="M29.1856819,14.2865921 C29.2679799,14.4811147 29.4931772,14.5731388 29.688448,14.4900926 C29.8822224,14.4085428 29.9734984,14.1825973 29.8904522,13.9888228 C29.8081542,13.7943002 29.5829569,13.7030242 29.3891824,13.7845741 C29.1946598,13.8676203 29.1033838,14.0920694 29.1856819,14.2865921" id="Fill-39" fill="#FEFEFE"></path>
                                        <path d="M22.1325157,20.090049 C22.5754077,20.8885322 23.1087944,21.5438207 23.7710031,22.0702872 C24.4300179,22.6015447 25.1848506,22.9794934 26.0605205,23.2387343 C25.1475881,23.4074804 24.1713093,23.0705205 23.4383018,22.4854985 C22.7084882,21.8967502 22.1671166,21.0178865 22.1325157,20.090049" id="Fill-43" fill="#172039"></path>
                                    </g>
                                </g>
                                <path d="M30.20275,33.3914214 C31.1988865,32.2471219 32.4410501,31.2635601 33.8991709,30.8420336 C35.3572917,30.4210539 37.0494116,30.6364643 38.1904308,31.6380681 C39.169072,32.4975228 39.6261358,33.7856115 40.2433905,34.9326447 C41.9770617,38.1523197 45.2831195,40.4770027 48.8997183,41.0199026 C49.7280097,41.1440096 50.5896513,41.1855608 51.3441345,41.549681 C52.098071,41.9138011 52.7246201,42.7218636 52.5529478,43.5414073 C45.973089,44.6895339 39.2806043,42.8355828 32.8587495,40.9991269 C29.3148654,39.9854952 27.4319378,36.5744657 30.20275,33.3914214" id="Fill-45" fill="#2178A9"></path>
                            </g>
                        </g>
                    </g>
                </g>
            </g>
        </g>
    </g>
</svg>