<?xml version="1.0" encoding="utf-8"?>
<!-- Generator: Adobe Illustrator 23.1.1, SVG Export Plug-In . SVG Version: 6.00 Build 0)  -->
<svg version="1.1" id="Capa_1" xmlns="http://www.w3.org/2000/svg" xmlns:xlink="http://www.w3.org/1999/xlink" x="0px" y="0px"
	 viewBox="0 0 25 25" style="enable-background:new 0 0 25 25;" xml:space="preserve">
<style type="text/css">
	.st0{fill:none;stroke:#000000;stroke-width:1.5;stroke-linecap:round;stroke-linejoin:round;stroke-miterlimit:10;}
	.st1{fill:none;stroke:#000000;stroke-width:1.5169;stroke-linecap:round;stroke-linejoin:round;stroke-miterlimit:10;}
</style>
<g>
	<rect x="6.8" y="14.5" class="st0" width="1.5" height="1.5"/>
	<rect x="12.5" y="14.5" class="st1" width="5.5" height="9"/>
	<path class="st0" d="M22.4,10.3v12.1c0,0.6-0.5,1.1-1.1,1.1H3.7c-0.6,0-1.1-0.5-1.1-1.1V10.3"/>
	<path class="st0" d="M3.9,1.5c-0.5,0-0.9,0.3-1,0.7C2.4,3.6,1.5,6.4,1.5,7.6c0,1.5,0.5,3,2.8,3s2.8-3,2.8-3s0,3,2.8,3s2.8-3,2.8-3
		s0,3,2.8,3s2.8-3,2.8-3s0.5,3,2.8,3s2.8-1.5,2.8-3c0-1.1-0.9-4-1.4-5.3c-0.2-0.4-0.6-0.7-1-0.7H3.9z"/>
</g>
</svg>
