<?xml version="1.0" encoding="utf-8"?>
<!-- Generator: Adobe Illustrator 23.1.1, SVG Export Plug-In . SVG Version: 6.00 Build 0)  -->
<svg version="1.1" id="Capa_1" xmlns="http://www.w3.org/2000/svg" xmlns:xlink="http://www.w3.org/1999/xlink" x="0px" y="0px"
	 viewBox="0 0 25 25" style="enable-background:new 0 0 25 25;" xml:space="preserve">
<style type="text/css">
	.st0{fill:none;stroke:#000000;stroke-width:1.5;stroke-linecap:round;stroke-linejoin:round;stroke-miterlimit:10;}
</style>
<g>
	<g>
		<g>
			<path class="st0" d="M16.9,1.4c-0.2-0.2-0.6-0.4-1-0.4H3.1C2.8,1,2.5,1.3,2.5,1.6v21.9c0,0.3,0.3,0.6,0.6,0.6h18.9
				c0.3,0,0.6-0.3,0.6-0.6V7.6c0-0.3-0.2-0.7-0.4-1L16.9,1.4z"/>
		</g>
	</g>
	<polyline class="st0" points="21.5,7 16.5,7 16.5,2 	"/>
	<line class="st0" x1="7" y1="16.5" x2="18" y2="16.5"/>
	<line class="st0" x1="13" y1="12.5" x2="18" y2="12.5"/>
	<line class="st0" x1="7" y1="20.5" x2="18" y2="20.5"/>
	<path class="st0" d="M7.5,11.5c0,0,0.7,0,1.5,0s1.5-0.7,1.5-1.5S9.8,8.5,9,8.5S7.5,7.8,7.5,7S8.2,5.5,9,5.5s1.5,0,1.5,0"/>
	<line class="st0" x1="9" y1="4.5" x2="9" y2="5.5"/>
	<line class="st0" x1="9" y1="11.5" x2="9" y2="12.5"/>
</g>
</svg>
