<?xml version="1.0" encoding="utf-8"?>
<!-- Generator: Adobe Illustrator 23.1.1, SVG Export Plug-In . SVG Version: 6.00 Build 0)  -->
<svg version="1.1" id="Capa_1" xmlns="http://www.w3.org/2000/svg" xmlns:xlink="http://www.w3.org/1999/xlink" x="0px" y="0px"
	 viewBox="0 0 25 25" style="enable-background:new 0 0 25 25;" xml:space="preserve">
<style type="text/css">
	.st0{fill:none;stroke:#000000;stroke-width:1.5;stroke-linecap:round;stroke-linejoin:round;stroke-miterlimit:10;}
</style>
<g>
	<g>
		<g>
			<path class="st0" d="M15.5,20c0,1.7-1.3,3-3,3c-1.7,0-3-1.3-3-3"/>
		</g>
	</g>
	<g>
		<path class="st0" d="M19.5,9c0,2.1,0,2.1,0,2.1c0,0.5,0.2,1.3,0.4,1.8l2.5,5.2c0.2,0.5,0,0.9-0.6,0.9H3.1c-0.5,0-0.8-0.4-0.6-0.9
			l2.5-5.2c0.2-0.5,0.4-1.4,0.4-1.9c0,0,0-0.1,0-2s1.7-7,7-7S19.5,6.9,19.5,9z"/>
	</g>
</g>
</svg>
