<?xml version="1.0" encoding="utf-8"?>
<!-- Generator: Adobe Illustrator 23.1.1, SVG Export Plug-In . SVG Version: 6.00 Build 0)  -->
<svg version="1.1" id="Capa_1" xmlns="http://www.w3.org/2000/svg" xmlns:xlink="http://www.w3.org/1999/xlink" x="0px" y="0px"
	 viewBox="0 0 25 25" style="enable-background:new 0 0 25 25;" xml:space="preserve">
<style type="text/css">
	.st0{fill:none;stroke:#000000;stroke-width:1.5;stroke-linecap:round;stroke-linejoin:round;stroke-miterlimit:10;}
</style>
<g>
	<line class="st0" x1="8.5" y1="1.5" x2="8.5" y2="5.5"/>
	<line class="st0" x1="16.5" y1="1.5" x2="16.5" y2="5.5"/>
	<path class="st0" d="M22.5,23.5h-20c-0.6,0-1-0.4-1-1v-18c0-0.6,0.4-1,1-1h20c0.6,0,1,0.4,1,1v18C23.5,23.1,23.1,23.5,22.5,23.5z"
		/>
	<rect x="11.8" y="10.8" class="st0" width="1.5" height="1.5"/>
	<rect x="11.8" y="16.8" class="st0" width="1.5" height="1.5"/>
	<rect x="5.8" y="10.8" class="st0" width="1.5" height="1.5"/>
	<rect x="5.8" y="16.8" class="st0" width="1.5" height="1.5"/>
	<rect x="17.8" y="10.8" class="st0" width="1.5" height="1.5"/>
	<rect x="17.8" y="16.8" class="st0" width="1.5" height="1.5"/>
</g>
</svg>
